<svg width="18" height="18" viewBox="0 0 18 18" fill="none" xmlns="http://www.w3.org/2000/svg">
<g id="Category">
<path id="Vector" d="M5.5999 9.94834C6.7749 9.94834 7.71656 10.8992 7.71656 12.0825V14.9233C7.71656 16.0983 6.7749 17.0567 5.5999 17.0567H2.78323C1.61656 17.0567 0.666565 16.0983 0.666565 14.9233V12.0825C0.666565 10.8992 1.61656 9.94834 2.78323 9.94834H5.5999ZM15.2166 9.94834C16.3833 9.94834 17.3333 10.8992 17.3333 12.0825V14.9233C17.3333 16.0983 16.3833 17.0567 15.2166 17.0567H12.4C11.225 17.0567 10.2833 16.0983 10.2833 14.9233V12.0825C10.2833 10.8992 11.225 9.94834 12.4 9.94834H15.2166ZM5.5999 0.390259C6.7749 0.390259 7.71656 1.34859 7.71656 2.52443V5.36526C7.71656 6.54859 6.7749 7.49859 5.5999 7.49859H2.78323C1.61656 7.49859 0.666565 6.54859 0.666565 5.36526V2.52443C0.666565 1.34859 1.61656 0.390259 2.78323 0.390259H5.5999ZM15.2166 0.390259C16.3833 0.390259 17.3333 1.34859 17.3333 2.52443V5.36526C17.3333 6.54859 16.3833 7.49859 15.2166 7.49859H12.4C11.225 7.49859 10.2833 6.54859 10.2833 5.36526V2.52443C10.2833 1.34859 11.225 0.390259 12.4 0.390259H15.2166Z" fill="white"/>
</g>
</svg>
