<svg width="16" height="18" viewBox="0 0 16 18" fill="none" xmlns="http://www.w3.org/2000/svg">
<path fill-rule="evenodd" clip-rule="evenodd" d="M0.916687 7.59815C0.916687 3.76493 4.11992 0.666687 7.99456 0.666687C11.8801 0.666687 15.0834 3.76493 15.0834 7.59815C15.0834 9.52976 14.3809 11.323 13.2246 12.843C11.949 14.5196 10.3768 15.9804 8.60714 17.127C8.20211 17.392 7.83658 17.412 7.39206 17.127C5.6123 15.9804 4.04009 14.5196 2.77544 12.843C1.61834 11.323 0.916687 9.52976 0.916687 7.59815ZM5.66188 7.81398C5.66188 9.09811 6.70974 10.1081 7.99456 10.1081C9.28022 10.1081 10.3382 9.09811 10.3382 7.81398C10.3382 6.53985 9.28022 5.48071 7.99456 5.48071C6.70974 5.48071 5.66188 6.53985 5.66188 7.81398Z" fill="#11174F"/>
</svg>
