<svg width="20" height="14" viewBox="0 0 20 14" fill="none" xmlns="http://www.w3.org/2000/svg">
<path fill-rule="evenodd" clip-rule="evenodd" d="M13.4652 3.86072C13.4652 5.81879 11.9043 7.38885 9.9575 7.38885C8.01075 7.38885 6.44976 5.81879 6.44976 3.86072C6.44976 1.9019 8.01075 0.333344 9.9575 0.333344C11.9043 0.333344 13.4652 1.9019 13.4652 3.86072ZM9.9575 13.6667C7.09818 13.6667 4.65672 13.2134 4.65672 11.4001C4.65672 9.58618 7.08251 9.11636 9.9575 9.11636C12.8168 9.11636 15.2583 9.56967 15.2583 11.3836C15.2583 13.1969 12.8325 13.6667 9.9575 13.6667ZM14.9642 3.92436C14.9642 4.92253 14.6665 5.85241 14.1442 6.62543C14.0905 6.70499 14.1382 6.81231 14.233 6.82882C14.3636 6.85133 14.4986 6.86409 14.6359 6.86785C16.0051 6.90387 17.2341 6.01752 17.5736 4.68312C18.0765 2.70104 16.5998 0.92159 14.7195 0.92159C14.515 0.92159 14.3195 0.943355 14.1293 0.982381C14.1031 0.988385 14.0755 1.00039 14.0606 1.02366C14.0427 1.05218 14.0561 1.09045 14.074 1.11522C14.6389 1.91151 14.9642 2.88266 14.9642 3.92436ZM17.2318 8.26048C18.1519 8.44136 18.757 8.81061 19.0077 9.34722C19.2196 9.78776 19.2196 10.2989 19.0077 10.7387C18.6242 11.571 17.3878 11.8381 16.9072 11.9072C16.808 11.9222 16.7282 11.8359 16.7386 11.7361C16.9841 9.42977 15.0314 8.33629 14.5262 8.08487C14.5046 8.07361 14.5001 8.05635 14.5023 8.04584C14.5038 8.03834 14.5128 8.02633 14.5292 8.02408C15.6223 8.00381 16.7976 8.15391 17.2318 8.26048ZM5.36424 6.86777C5.50153 6.86402 5.63584 6.85201 5.76717 6.82875C5.86193 6.81223 5.90969 6.70491 5.85596 6.62536C5.33364 5.85234 5.03592 4.92246 5.03592 3.92429C5.03592 2.88259 5.36125 1.91143 5.9261 1.11514C5.94401 1.09038 5.9567 1.0521 5.93953 1.02358C5.92461 1.00107 5.89626 0.988309 5.87089 0.982305C5.67987 0.943279 5.48437 0.921514 5.27992 0.921514C3.39957 0.921514 1.92291 2.70096 2.42657 4.68305C2.76608 6.01745 3.99502 6.9038 5.36424 6.86777ZM5.49743 8.04539C5.49967 8.05665 5.49519 8.07316 5.4743 8.08517C4.96839 8.33659 3.01567 9.43007 3.26116 11.7356C3.27161 11.8362 3.19251 11.9218 3.09327 11.9075C2.61274 11.8384 1.37634 11.5713 0.992807 10.739C0.780148 10.2984 0.780148 9.78806 0.992807 9.34752C1.24352 8.81091 1.84792 8.44166 2.76794 8.26004C3.20296 8.15421 4.37743 8.00411 5.47131 8.02438C5.48773 8.02663 5.49594 8.03864 5.49743 8.04539Z" fill="#11174F"/>
</svg>
