<svg width="20" height="20" viewBox="0 0 20 20" fill="none" xmlns="http://www.w3.org/2000/svg">
<path d="M16.5 8.58332C16.3334 7.83332 16 7.08332 15.5834 6.41666L16.4167 4.66666L15.25 3.49999L13.5 4.33332C12.8334 3.91666 12.1667 3.66666 11.4167 3.49999L10.8334 1.66666H9.16669L8.50002 3.49999C7.75002 3.66666 7.08335 3.99999 6.41669 4.41666L4.66669 3.58332L3.50002 4.66666L4.33335 6.41666C3.91669 7.08332 3.66669 7.74999 3.50002 8.49999L1.66669 9.16666V10.8333L3.50002 11.5C3.66669 12.25 4.00002 13 4.33335 13.5833L3.50002 15.3333L4.66669 16.5L6.41669 15.6667C7.08335 16.0833 7.75002 16.4167 8.50002 16.5833L9.16669 18.3333H10.8334L11.5 16.5C11.75 16.4167 12.0834 16.3333 12.3334 16.25L11 14.9167C7.83335 15.5 5.00002 13.1667 5.00002 9.99999C5.00002 7.24999 7.25002 4.99999 10 4.99999C13.0834 4.99999 15.4167 7.74999 14.9167 10.6667L16.3334 12.0833C16.4167 11.8333 16.5 11.6667 16.5 11.4167L18.3334 10.8333V9.16666L16.5 8.58332Z" fill="#11174F"/>
<path d="M17.9998 16.1668L13.0832 11.2501C14.2498 8.66679 11.8332 5.9168 9.16651 6.6668L10.6665 8.16679C11.3332 8.83346 11.3332 9.91679 10.6665 10.5001C10.0832 11.1668 8.91651 11.1668 8.33317 10.5001L6.83317 9.08346C6.08317 11.4168 8.49984 14.0835 11.2498 13.0001L16.1665 17.9168C16.6665 18.4168 17.4165 18.4168 17.9165 17.9168C18.4165 17.5001 18.4165 16.6668 17.9998 16.1668Z" fill="#11174F"/>
</svg>
