<svg width="14" height="18" viewBox="0 0 14 18" fill="none" xmlns="http://www.w3.org/2000/svg">
<path d="M12.6006 2.07281C12.3242 1.79579 11.9566 1.64319 11.5654 1.64319H10.9162V2.29423C10.9162 3.0122 10.3327 3.59631 9.61551 3.59631H3.76264C3.04546 3.59631 2.46199 3.0122 2.46199 2.29423V1.64319H1.81059C1.00467 1.64319 0.348288 2.29957 0.347376 3.1064L0.333314 15.8668C0.332858 16.2584 0.484877 16.6266 0.761276 16.9037C1.03774 17.1807 1.40538 17.3333 1.79653 17.3333H11.5513C12.3572 17.3333 13.0137 16.6769 13.0145 15.8701L13.0286 3.10966C13.0291 2.71809 12.8771 2.34986 12.6006 2.07281ZM6.84679 6.526H10.3121C10.5814 6.526 10.7998 6.74462 10.7998 7.01428C10.7998 7.28394 10.5814 7.50256 10.3121 7.50256H6.84679C6.57742 7.50256 6.35906 7.28394 6.35906 7.01428C6.35906 6.74462 6.57742 6.526 6.84679 6.526ZM6.84679 9.78121H10.3121C10.5814 9.78121 10.7998 9.99983 10.7998 10.2695C10.7998 10.5392 10.5814 10.7578 10.3121 10.7578H6.84679C6.57742 10.7578 6.35906 10.5392 6.35906 10.2695C6.35906 9.99983 6.57742 9.78121 6.84679 9.78121ZM6.84679 13.0364H10.326C10.5954 13.0364 10.8137 13.255 10.8137 13.5247C10.8137 13.7944 10.5954 14.013 10.326 14.013H6.84679C6.57742 14.013 6.35906 13.7944 6.35906 13.5247C6.35906 13.255 6.57742 13.0364 6.84679 13.0364ZM2.69109 6.54527C2.88159 6.35458 3.19038 6.35458 3.38087 6.54527L3.64607 6.8108L4.77088 5.68476C4.96137 5.4941 5.27016 5.49404 5.46063 5.68476C5.65109 5.87542 5.65109 6.1846 5.46063 6.37529L3.99093 7.84657C3.89946 7.93814 3.7754 7.98961 3.64604 7.98961C3.51668 7.98961 3.39262 7.93818 3.30115 7.84657L2.69106 7.23577C2.5006 7.04511 2.5006 6.73593 2.69109 6.54527ZM2.69109 10.0491C2.88159 9.85839 3.19038 9.85839 3.38087 10.0491L3.64607 10.3146L4.77088 9.18853C4.96134 8.99788 5.27016 8.99788 5.46063 9.18853C5.65109 9.37919 5.65109 9.68837 5.46063 9.87906L3.99093 11.3504C3.89949 11.442 3.7754 11.4934 3.64604 11.4934C3.51668 11.4934 3.39262 11.442 3.30115 11.3504L2.69106 10.7396C2.5006 10.5489 2.5006 10.2398 2.69109 10.0491ZM2.69109 13.3043C2.88159 13.1136 3.19038 13.1136 3.38087 13.3043L3.64607 13.5698L4.77088 12.4437C4.96134 12.2531 5.27016 12.2531 5.46063 12.4437C5.65109 12.6344 5.65109 12.9436 5.46063 13.1343L3.99093 14.6056C3.89949 14.6972 3.7754 14.7486 3.64604 14.7486C3.51668 14.7486 3.39262 14.6972 3.30115 14.6056L2.69106 13.9948C2.5006 13.8041 2.5006 13.495 2.69109 13.3043Z" fill="#11174F"/>
<path d="M3.43732 2.29423C3.43732 2.47401 3.58289 2.61975 3.76248 2.61975H9.61534C9.79493 2.61975 9.94051 2.47401 9.94051 2.29423V0.992147C9.94051 0.812362 9.79493 0.666626 9.61534 0.666626H3.76248C3.58289 0.666626 3.43732 0.812362 3.43732 0.992147V2.29423Z" fill="#11174F"/>
</svg>
