<svg width="18" height="12" viewBox="0 0 18 12" fill="none" xmlns="http://www.w3.org/2000/svg">
<path d="M17.2376 3.81666C17.1561 3.71723 17.0345 3.65919 16.9069 3.65919H15.2848C14.8845 2.6034 14.3631 1.56895 13.7703 1.17847C11.7198 -0.170494 6.28098 -0.170494 4.23048 1.17847C3.63731 1.56938 3.11797 2.60511 2.71555 3.65919H1.0935C0.964626 3.65919 0.843432 3.71723 0.762777 3.81666C0.681696 3.91567 0.649264 4.04668 0.675722 4.17257L0.915978 5.33676C0.956945 5.5352 1.13191 5.67688 1.33376 5.67688H1.81427C1.3504 6.21203 1.12551 6.88587 1.12252 7.56014C1.11953 8.39316 1.43575 9.14595 2.01399 9.67854C2.02039 9.68409 2.02679 9.68793 2.03276 9.69348V11.3224C2.03276 11.6753 2.31953 11.9625 2.67288 11.9625H4.16903C4.52238 11.9625 4.80915 11.6753 4.80915 11.3224V10.6678H13.1908V11.3224C13.1908 11.6753 13.4776 11.9625 13.8309 11.9625H15.3271C15.6796 11.9625 15.9672 11.6753 15.9672 11.3224V9.72548C16.5808 9.16345 16.874 8.39017 16.8778 7.61818C16.8804 6.92086 16.6453 6.22227 16.1541 5.67602H16.6666C16.8693 5.67602 17.0443 5.53434 17.0844 5.33548L17.3251 4.17172C17.3498 4.04668 17.3187 3.91652 17.2376 3.81666ZM4.93333 2.24749C6.56775 1.17165 11.4322 1.17165 13.0658 2.24749C13.3833 2.45575 13.7916 3.29773 14.1659 4.32876H3.83404C4.20744 3.29816 4.61583 2.4566 4.93333 2.24749ZM3.01896 7.7206C3.01896 7.02499 3.58312 6.46168 4.27828 6.46168C4.9743 6.46168 5.5376 7.02499 5.5376 7.7206C5.5376 8.41621 4.9743 8.97995 4.27828 8.97995C3.58312 8.97995 3.01896 8.41621 3.01896 7.7206ZM13.7383 8.97995C13.0431 8.97995 12.479 8.41621 12.479 7.7206C12.479 7.02499 13.0431 6.46168 13.7383 6.46168C14.4343 6.46168 14.9976 7.02499 14.9976 7.7206C14.9976 8.41621 14.4335 8.97995 13.7383 8.97995Z" fill="#11174F"/>
</svg>
