<svg width="16" height="18" viewBox="0 0 16 18" fill="none" xmlns="http://www.w3.org/2000/svg">
<path fill-rule="evenodd" clip-rule="evenodd" d="M4.50833 0.666687H11.4925C14.0667 0.666687 15.5 2.15002 15.5 4.69169V13.3C15.5 15.8834 14.0667 17.3334 11.4925 17.3334H4.50833C1.975 17.3334 0.5 15.8834 0.5 13.3V4.69169C0.5 2.15002 1.975 0.666687 4.50833 0.666687ZM4.73333 4.55002V4.54169H7.22417C7.58333 4.54169 7.875 4.83335 7.875 5.19085C7.875 5.55835 7.58333 5.85002 7.22417 5.85002H4.73333C4.37417 5.85002 4.08333 5.55835 4.08333 5.20002C4.08333 4.84169 4.37417 4.55002 4.73333 4.55002ZM4.73333 9.61669H11.2667C11.625 9.61669 11.9167 9.32502 11.9167 8.96669C11.9167 8.60835 11.625 8.31585 11.2667 8.31585H4.73333C4.37417 8.31585 4.08333 8.60835 4.08333 8.96669C4.08333 9.32502 4.37417 9.61669 4.73333 9.61669ZM4.73333 13.425H11.2667C11.5992 13.3917 11.85 13.1075 11.85 12.775C11.85 12.4334 11.5992 12.15 11.2667 12.1167H4.73333C4.48333 12.0917 4.24167 12.2084 4.10833 12.425C3.975 12.6334 3.975 12.9084 4.10833 13.125C4.24167 13.3334 4.48333 13.4584 4.73333 13.425Z" fill="#11174F"/>
</svg>
