<svg width="15" height="18" viewBox="0 0 15 18" fill="none" xmlns="http://www.w3.org/2000/svg">
<path d="M0.333313 3.43333V13.3832C0.335269 14.1164 0.627382 14.819 1.1458 15.3374C1.66423 15.8558 2.3668 16.1479 3.09995 16.1499H6.84436C6.89766 15.7652 7.00814 15.3907 7.17214 15.0388C7.62077 14.0493 8.43213 13.2697 9.43878 12.861C9.07603 12.61 8.77977 12.2745 8.57555 11.8835C8.37134 11.4925 8.2653 11.0577 8.26657 10.6166C8.26729 9.88747 8.55725 9.18843 9.07282 8.67287C9.58838 8.1573 10.2874 7.86734 11.0165 7.86662C11.2821 7.86561 11.5462 7.90495 11.7999 7.98328C12.2163 8.10649 12.5972 8.32744 12.911 8.62772V3.43333C12.9109 2.69959 12.6194 1.99592 12.1006 1.47709C11.5817 0.958259 10.8781 0.666753 10.1443 0.666687H3.09995C2.3665 0.667697 1.66339 0.959505 1.14476 1.47813C0.626131 1.99676 0.334323 2.69988 0.333313 3.43333ZM3.68884 3.42222H9.55545C9.70279 3.42222 9.84409 3.48075 9.94828 3.58493C10.0525 3.68912 10.111 3.83043 10.111 3.97777C10.111 4.12511 10.0525 4.26641 9.94828 4.3706C9.84409 4.47479 9.70279 4.53332 9.55545 4.53332H3.68884C3.54149 4.53332 3.40019 4.47479 3.296 4.3706C3.19182 4.26641 3.13329 4.12511 3.13329 3.97777C3.13329 3.83043 3.19182 3.68912 3.296 3.58493C3.40019 3.48075 3.54149 3.42222 3.68884 3.42222ZM3.68884 6.37774H9.55545C9.70279 6.37774 9.84409 6.43627 9.94828 6.54046C10.0525 6.64465 10.111 6.78595 10.111 6.93329C10.111 7.08063 10.0525 7.22194 9.94828 7.32613C9.84409 7.43031 9.70279 7.48884 9.55545 7.48884H3.68884C3.54149 7.48884 3.40019 7.43031 3.296 7.32613C3.19182 7.22194 3.13329 7.08063 3.13329 6.93329C3.13329 6.78595 3.19182 6.64465 3.296 6.54046C3.40019 6.43627 3.54149 6.37774 3.68884 6.37774ZM3.68884 9.32771H6.35548C6.50282 9.32771 6.64412 9.38624 6.74831 9.49043C6.8525 9.59462 6.91103 9.73592 6.91103 9.88326C6.91103 10.0306 6.8525 10.1719 6.74831 10.2761C6.64412 10.3803 6.50282 10.4388 6.35548 10.4388H3.68884C3.54149 10.4388 3.40019 10.3803 3.296 10.2761C3.19182 10.1719 3.13329 10.0306 3.13329 9.88326C3.13329 9.73592 3.19182 9.59462 3.296 9.49043C3.40019 9.38624 3.54149 9.32771 3.68884 9.32771Z" fill="#11174F"/>
<path d="M11.0166 12.5336C12.0752 12.5336 12.9333 11.6755 12.9333 10.617C12.9333 9.55843 12.0752 8.70032 11.0166 8.70032C9.95809 8.70032 9.09998 9.55843 9.09998 10.617C9.09998 11.6755 9.95809 12.5336 11.0166 12.5336Z" fill="#11174F"/>
<path d="M8.18293 17.3334H13.8551C14.0023 17.333 14.1434 17.2743 14.2474 17.1702C14.3515 17.0661 14.4102 16.9251 14.4107 16.7779C14.4107 15.8783 14.0533 15.0157 13.4173 14.3796C12.7812 13.7436 11.9185 13.3862 11.019 13.3862C10.1195 13.3862 9.25682 13.7436 8.62077 14.3796C7.98471 15.0157 7.62738 15.8783 7.62738 16.7779C7.62781 16.9251 7.68648 17.0661 7.79057 17.1702C7.89466 17.2743 8.03572 17.333 8.18293 17.3334Z" fill="#11174F"/>
</svg>
