<svg width="18" height="18" viewBox="0 0 18 18" fill="none" xmlns="http://www.w3.org/2000/svg">
<path fill-rule="evenodd" clip-rule="evenodd" d="M10.7678 8.36095H13.0743C13.424 8.36095 13.6988 8.07181 13.6988 7.72313C13.6988 7.36596 13.424 7.08532 13.0743 7.08532H10.7678C10.418 7.08532 10.1433 7.36596 10.1433 7.72313C10.1433 8.07181 10.418 8.36095 10.7678 8.36095ZM15.8138 3.9396C16.3218 3.9396 16.6548 4.11819 16.9879 4.50938C17.321 4.90058 17.3793 5.46186 17.3043 5.97126L16.5133 11.55C16.3634 12.6224 15.4641 13.4125 14.4066 13.4125H5.32201C4.21454 13.4125 3.29859 12.5459 3.20699 11.4233L2.44092 2.15286L1.18357 1.93175C0.850496 1.87222 0.617344 1.54055 0.675632 1.20038C0.73392 0.852558 1.05867 0.622093 1.40007 0.673969L3.38602 0.979271C3.66913 1.03115 3.8773 1.26842 3.90228 1.55756L4.06049 3.46251C4.08547 3.7355 4.30197 3.9396 4.56843 3.9396H15.8138ZM5.18861 14.7566C4.48916 14.7566 3.92293 15.3349 3.92293 16.0492C3.92293 16.7551 4.48916 17.3334 5.18861 17.3334C5.87974 17.3334 6.44597 16.7551 6.44597 16.0492C6.44597 15.3349 5.87974 14.7566 5.18861 14.7566ZM14.5563 14.7566C13.8569 14.7566 13.2906 15.3349 13.2906 16.0492C13.2906 16.7551 13.8569 17.3334 14.5563 17.3334C15.2474 17.3334 15.8137 16.7551 15.8137 16.0492C15.8137 15.3349 15.2474 14.7566 14.5563 14.7566Z" fill="#11174F"/>
</svg>
