<svg width="20" height="20" viewBox="0 0 20 20" fill="none" xmlns="http://www.w3.org/2000/svg">
<path d="M14.0625 15.3727C14.2812 14.8719 14.6268 14.4524 15.0467 14.1315C14.9063 14.1486 14.7678 14.1593 14.6318 14.1593C13.9224 14.1593 13.274 13.925 12.7207 13.4609C11.905 14.1849 10.8566 14.6481 9.70172 14.7237C9.72639 14.9551 9.7836 15.171 9.86612 15.3727L14.0625 15.3727Z" fill="#11174F"/>
<path d="M13.7954 9.68211C13.7954 7.24139 11.8099 5.25592 9.36918 5.25592C6.92846 5.25592 4.94299 7.24139 4.94299 9.68211C4.94299 12.1228 6.92846 14.1083 9.36918 14.1083C11.8099 14.1083 13.7954 12.1228 13.7954 9.68211ZM5.89147 9.68211C5.89147 7.76148 7.44855 6.2044 9.36918 6.2044C11.2898 6.2044 12.8469 7.76148 12.8469 9.68211C12.8469 11.6027 11.2898 13.1598 9.36918 13.1598C7.44855 13.1598 5.89147 11.6028 5.89147 9.68211Z" fill="#11174F"/>
<path d="M9.19591 15.3728C9.13204 15.1666 9.08872 14.951 9.06915 14.7253C7.91234 14.657 6.86081 14.2008 6.04101 13.4818C5.60693 14.0199 5.44695 14.6544 5.55951 15.3728H9.19591Z" fill="#11174F"/>
<path d="M17.681 5.61105L17.1803 6.11184L16.7332 5.6648L17.4025 4.99551C17.2912 4.77609 17.1695 4.56332 17.0383 4.35656L16.2318 5.16309L15.7847 4.71605L16.6716 3.82891C16.5277 3.63985 16.3753 3.45776 16.2144 3.28323L15.2833 4.21464L14.8363 3.7676L15.7674 2.83619C15.5928 2.67559 15.4107 2.5232 15.2217 2.37903L14.3349 3.26616L13.8878 2.81912L14.6943 2.0126C14.4879 1.88139 14.2751 1.75969 14.0557 1.64839L13.3864 2.31768L12.9394 1.87064L13.4402 1.36985C12.6108 1.0388 11.7101 0.849768 10.7676 0.833313L18.2179 8.28323C18.2014 7.34108 18.0124 6.44033 17.681 5.61105Z" fill="#11174F"/>
<path d="M4.32762 10.0149C3.08227 10.1508 2.45502 11.1265 2.14172 11.9922C2.38895 12.7671 2.76202 13.4993 3.2546 14.1692C3.94668 14.3185 4.55781 14.7516 4.91791 15.3725H4.91853C4.80565 14.4939 5.03773 13.6979 5.59319 13.0358C4.86792 12.2201 4.40381 11.1711 4.32762 10.0149Z" fill="#11174F"/>
<path d="M18.027 8.98682L10.0649 1.02472C9.86668 1.17458 9.72695 1.39748 9.69342 1.65576L17.396 9.35859C17.6543 9.3251 17.8772 9.18506 18.027 8.98682Z" fill="#11174F"/>
<path d="M9.67098 4.63967C12.2088 4.79079 14.2445 6.8164 14.4108 9.35039C14.9616 9.29126 15.4336 9.06552 15.819 8.67603L9.24132 2.09808C8.83284 2.10472 8.43226 2.14424 8.04181 2.21349C9.01527 2.77275 9.5799 3.60774 9.67098 4.63967Z" fill="#11174F"/>
<path d="M15.655 16.6373L16.4564 15.0341L19.1014 15.3278C18.6455 14.5703 17.8418 14.108 16.9569 14.108C15.8892 14.108 14.9322 14.7859 14.575 15.7941L14.5007 16.005H4.52751L4.44184 15.8248C4.12854 15.1662 3.45668 14.7403 2.73018 14.7403C1.68402 14.7403 0.833252 15.5911 0.833252 16.6373C0.833252 17.6834 1.68402 18.5342 2.73018 18.5342C3.45671 18.5342 4.12854 18.1087 4.44184 17.4498L4.52751 17.2696H14.5003L14.5746 17.4805C14.9319 18.489 15.8889 19.1666 16.9566 19.1666C17.8415 19.1666 18.6452 18.7043 19.1011 17.9468L16.4561 18.2405L15.655 16.6373ZM2.72984 17.5858C2.20596 17.5858 1.78136 17.1612 1.78136 16.6373C1.78136 16.1134 2.20596 15.6888 2.72984 15.6888C3.25372 15.6888 3.67832 16.1134 3.67832 16.6373C3.67832 17.1612 3.25372 17.5858 2.72984 17.5858Z" fill="#11174F"/>
<path d="M6.01801 5.90408C6.8321 5.18135 7.87795 4.7185 9.03065 4.64135C8.92284 3.6265 8.26145 2.89237 7.05531 2.45703C5.46125 2.96921 4.09608 3.99481 3.15393 5.3388C4.23615 5.04761 5.22507 5.2392 6.01801 5.90408Z" fill="#11174F"/>
<path d="M4.32573 9.38013C4.39433 8.22616 4.84897 7.17651 5.56572 6.35767C4.77281 5.7165 3.78669 5.66433 2.62704 6.20781C2.088 7.24956 1.78131 8.43039 1.78131 9.68207C1.78131 10.1323 1.82336 10.5755 1.89955 11.0099C2.45854 10.0362 3.29381 9.47121 4.32573 9.38013Z" fill="#11174F"/>
<path d="M16.9523 9.80831L16.2662 9.12225C15.7616 9.6341 15.1398 9.92118 14.4123 9.98314C14.3437 11.1374 13.889 12.1874 13.1723 13.0062C13.9659 13.648 14.9519 13.7002 16.1119 13.1561C16.6447 12.1232 16.9327 10.9816 16.9523 9.80831Z" fill="#11174F"/>
<path d="M9.77546 10.5358L10.7255 11.4858L11.1726 11.0388L10.2225 10.0887C10.2816 9.96513 10.3173 9.82824 10.3173 9.68218C10.3173 9.53612 10.2816 9.39923 10.2225 9.27562L11.1732 8.32494L10.7261 7.8779L9.77546 8.82858C9.65184 8.76945 9.51495 8.73373 9.36889 8.73373C9.22283 8.73373 9.08594 8.76945 8.96232 8.82858L8.01101 7.87756L7.56396 8.3246L8.51528 9.27592C8.45616 9.39954 8.42044 9.53643 8.42044 9.68249C8.42044 9.82855 8.45616 9.96544 8.51528 10.0891L7.56461 11.0397L8.01165 11.4868L8.96232 10.5361C9.08594 10.5952 9.22283 10.6309 9.36889 10.6309C9.51495 10.6306 9.65184 10.5949 9.77546 10.5358Z" fill="#11174F"/>
</svg>
