<svg width="18" height="16" viewBox="0 0 18 16" fill="none" xmlns="http://www.w3.org/2000/svg">
<path d="M17.3177 5.06146L16.375 1.28854C16.2594 0.825 15.8427 0.5 15.3646 0.5H2.63648C2.15835 0.5 1.74169 0.825 1.62502 1.28854L0.682312 5.06146C0.671895 5.10208 0.666687 5.14479 0.666687 5.1875C0.666687 6.62292 1.77606 7.79167 3.14065 7.79167C3.93335 7.79167 4.64065 7.39687 5.09377 6.78437C5.5469 7.39687 6.25419 7.79167 7.0469 7.79167C7.8396 7.79167 8.5469 7.39687 9.00002 6.78437C9.45315 7.39687 10.1594 7.79167 10.9531 7.79167C11.7469 7.79167 12.4531 7.39687 12.9063 6.78437C13.3594 7.39687 14.0656 7.79167 14.8594 7.79167C16.224 7.79167 17.3334 6.62292 17.3334 5.1875C17.3334 5.14479 17.3281 5.10208 17.3177 5.06146Z" fill="#11174F"/>
<path d="M14.8597 8.83357C14.1503 8.83357 13.4763 8.6169 12.9065 8.22107C11.7669 9.01378 10.1399 9.01378 9.00028 8.22107C7.8607 9.01378 6.23362 9.01378 5.09403 8.22107C4.52424 8.6169 3.85028 8.83357 3.14091 8.83357C2.62945 8.83357 2.14716 8.71378 1.70862 8.50961V14.0419C1.70862 14.6169 2.17528 15.0836 2.75028 15.0836H6.91695V10.9169H11.0836V15.0836H15.2503C15.8253 15.0836 16.2919 14.6169 16.2919 14.0419V8.50961C15.8534 8.71378 15.3711 8.83357 14.8597 8.83357Z" fill="#11174F"/>
</svg>
